<svg width="40" height="40" viewBox="0 0 40 40" fill="none" xmlns="http://www.w3.org/2000/svg">
<path fill-rule="evenodd" clip-rule="evenodd" d="M11.2275 6.66669C7.76242 6.66669 4.16666 9.80074 4.16666 14.1892C4.16666 19.3682 8.03931 24.123 12.2686 27.7236C14.345 29.4914 16.4276 30.9132 17.9941 31.894C18.776 32.3836 19.4261 32.7613 19.8782 33.0152C19.9205 33.039 19.9612 33.0618 20 33.0834C20.0388 33.0618 20.0794 33.039 20.1218 33.0152C20.5739 32.7613 21.224 32.3836 22.0059 31.894C23.5724 30.9132 25.655 29.4914 27.7314 27.7236C31.9607 24.123 35.8333 19.3682 35.8333 14.1892C35.8333 9.80074 32.2376 6.66669 28.7725 6.66669C25.2636 6.66669 22.4378 8.98167 21.1858 12.7376C21.0157 13.2481 20.538 13.5924 20 13.5924C19.462 13.5924 18.9843 13.2481 18.8141 12.7376C17.5621 8.98167 14.7364 6.66669 11.2275 6.66669ZM20 34.5045L20.571 35.6165C20.2126 35.8005 19.7874 35.8005 19.429 35.6165L20 34.5045ZM1.66666 14.1892C1.66666 8.42003 6.38171 4.16669 11.2275 4.16669C15.0497 4.16669 18.1346 6.21037 20 9.34139C21.8654 6.21037 24.9503 4.16669 28.7725 4.16669C33.6183 4.16669 38.3333 8.42003 38.3333 14.1892C38.3333 20.5531 33.6643 25.9559 29.352 29.6272C27.1575 31.4955 24.9693 32.9882 23.3326 34.0129C22.513 34.5261 21.8284 34.924 21.3463 35.1948C21.1051 35.3303 20.9144 35.4342 20.7824 35.5049C20.7164 35.5403 20.6651 35.5674 20.6295 35.586L20.5881 35.6077L20.5764 35.6137L20.5729 35.6155C20.5725 35.6157 20.571 35.6165 20 34.5045C19.429 35.6165 19.4294 35.6167 19.429 35.6165L19.4235 35.6137L19.4119 35.6077L19.3705 35.586C19.3349 35.5674 19.2836 35.5403 19.2176 35.5049C19.0856 35.4342 18.8949 35.3303 18.6537 35.1948C18.1716 34.924 17.487 34.5261 16.6674 34.0129C15.0307 32.9882 12.8425 31.4955 10.648 29.6272C6.33567 25.9559 1.66666 20.5531 1.66666 14.1892Z" fill="#386059"/>
</svg>
