<svg width="40" height="40" viewBox="0 0 40 40" fill="none" xmlns="http://www.w3.org/2000/svg">
<path d="M29.1667 13.3333C29.1667 14.714 28.0474 15.8333 26.6667 15.8333C25.286 15.8333 24.1667 14.714 24.1667 13.3333C24.1667 11.9526 25.286 10.8333 26.6667 10.8333C28.0474 10.8333 29.1667 11.9526 29.1667 13.3333Z" fill="#386059"/>
<path fill-rule="evenodd" clip-rule="evenodd" d="M33.8692 1.25C29.3016 1.25 24.9066 2.99445 21.5823 6.12678L19.4081 8.17542C18.51 9.02162 17.6527 9.90869 16.8388 10.8335H8.44365C7.41914 10.8335 6.46974 11.3711 5.94263 12.2496L1.42814 19.7737C1.22014 20.1204 1.19264 20.5463 1.35432 20.9168C1.516 21.2873 1.84689 21.5568 2.24249 21.6401L9.86198 23.2442C9.92643 23.3262 9.99776 23.4044 10.0759 23.4777L13.4025 26.5995L16.5224 29.9242C16.5958 30.0023 16.6739 30.0737 16.756 30.1382L18.3601 37.7577C18.4434 38.1533 18.7129 38.4842 19.0834 38.6459C19.454 38.8076 19.8798 38.7801 20.2265 38.5721L27.7506 34.0576C28.6291 33.5305 29.1667 32.5811 29.1667 31.5566V23.1608C30.0919 22.3464 30.9793 21.4887 31.8258 20.5901L33.8727 18.4174C37.0054 15.0919 38.7495 10.6953 38.7481 6.1266L38.7475 4.16581C38.7471 2.55531 37.4414 1.25 35.8309 1.25H33.8692ZM26.6667 25.187C26.1122 25.6002 25.5468 25.999 24.9708 26.383L19.3142 30.154L20.445 35.5255L26.4644 31.9138C26.5899 31.8385 26.6667 31.7029 26.6667 31.5566V25.187ZM9.846 20.686L13.6183 15.0276C14.0018 14.4522 14.4002 13.8874 14.8129 13.3335H8.44365C8.29729 13.3335 8.16167 13.4103 8.08636 13.5358L4.47474 19.5552L9.846 20.686ZM23.2967 7.9463C26.1571 5.25104 29.939 3.75 33.8692 3.75H35.8309C36.061 3.75 36.2475 3.93647 36.2475 4.16654L36.2481 6.12734C36.2493 10.0585 34.7486 13.8417 32.053 16.7031L30.0061 18.8758C28.0781 20.9224 25.9236 22.7432 23.584 24.3028L18.104 27.9562L15.1983 24.8598C15.1802 24.8405 15.1615 24.8218 15.1422 24.8037L12.0439 21.8961L15.6984 16.4143C17.2574 14.0759 19.0771 11.9223 21.1225 9.99494L23.2967 7.9463Z" fill="#386059"/>
<path d="M10.8333 35C12.333 33.5003 12.3331 30.6665 10.8333 29.1667C9.33361 27.667 6.4997 27.667 4.99996 29.1667C2.98531 31.1814 2.59165 35.6688 2.51694 37.0721C2.50443 37.3071 2.69287 37.4956 2.92791 37.483C4.33128 37.4082 8.81897 37.0144 10.8333 35Z" fill="#386059"/>
</svg>
