<svg width="1440" height="1136" viewBox="0 0 1440 1136" fill="none" xmlns="http://www.w3.org/2000/svg">
<path d="M-16.4936 159.641C-16.4937 144.245 0.173023 134.622 13.5064 142.32L328.506 324.186C341.84 331.884 341.84 351.129 328.506 358.827L13.5064 540.692C0.173022 548.39 -16.4937 538.768 -16.4937 523.372L-16.4936 159.641Z" fill="url(#paint0_linear)" fill-opacity="0.2"/>
<path d="M383.506 385.641C383.506 370.245 400.173 360.622 413.506 368.32L728.506 550.186C741.84 557.884 741.84 577.129 728.506 584.827L413.506 766.692C400.173 774.39 383.506 764.768 383.506 749.372L383.506 385.641Z" fill="#DBE6E5"/>
<path d="M1182.51 383.641C1182.51 368.245 1199.17 358.622 1212.51 366.32L1527.51 548.186C1540.84 555.884 1540.84 575.129 1527.51 582.827L1212.51 764.692C1199.17 772.39 1182.51 762.768 1182.51 747.372L1182.51 383.641Z" fill="#E4ECEC"/>
<path d="M-16.4936 610.641C-16.4937 595.245 0.173023 585.622 13.5064 593.32L328.506 775.186C341.84 782.884 341.84 802.129 328.506 809.827L13.5064 991.692C0.173022 999.39 -16.4937 989.768 -16.4937 974.372L-16.4936 610.641Z" fill="url(#paint1_linear)" fill-opacity="0.15"/>
<path d="M785.506 610.641C785.506 595.245 802.173 585.622 815.506 593.32L1130.51 775.186C1143.84 782.884 1143.84 802.129 1130.51 809.827L815.506 991.692C802.173 999.39 785.506 989.768 785.506 974.372L785.506 610.641Z" fill="#4D807E" fill-opacity="0.15"/>
<path d="M367.506 748.372C367.506 763.768 350.84 773.39 337.506 765.692L22.5064 583.827C9.17304 576.129 9.17302 556.884 22.5064 549.186L337.506 367.32C350.84 359.622 367.506 369.245 367.506 384.641L367.506 748.372Z" fill="#DBE6E5"/>
<path d="M767.506 975.372C767.506 990.768 750.84 1000.39 737.506 992.692L422.506 810.827C409.173 803.129 409.173 783.884 422.506 776.186L737.506 594.32C750.84 586.622 767.506 596.245 767.506 611.641L767.506 975.372Z" fill="#4D807E" fill-opacity="0.1"/>
<path d="M1170.51 745.372C1170.51 760.768 1153.84 770.39 1140.51 762.692L825.506 580.827C812.173 573.129 812.173 553.884 825.506 546.186L1140.51 364.32C1153.84 356.622 1170.51 366.245 1170.51 381.641L1170.51 745.372Z" fill="#DBE6E5"/>
<path d="M779.506 531.372C779.506 546.768 762.84 556.39 749.506 548.692L434.506 366.827C421.173 359.129 421.173 339.884 434.506 332.186L749.506 150.32C762.84 142.622 779.506 152.245 779.506 167.641L779.506 531.372Z" fill="url(#paint2_linear)" fill-opacity="0.2"/>
<defs>
<linearGradient id="paint0_linear" x1="83" y1="490" x2="63" y2="161.5" gradientUnits="userSpaceOnUse">
<stop stop-color="#4D807E"/>
<stop offset="1" stop-color="#4D807E" stop-opacity="0"/>
</linearGradient>
<linearGradient id="paint1_linear" x1="149.5" y1="684.5" x2="145.5" y2="896.5" gradientUnits="userSpaceOnUse">
<stop stop-color="#4D807E"/>
<stop offset="1" stop-color="#4D807E" stop-opacity="0"/>
</linearGradient>
<linearGradient id="paint2_linear" x1="603" y1="434.5" x2="701" y2="146.5" gradientUnits="userSpaceOnUse">
<stop stop-color="#4D807E"/>
<stop offset="1" stop-color="#4D807E" stop-opacity="0"/>
</linearGradient>
</defs>
</svg>
