<svg width="40" height="40" viewBox="0 0 40 40" fill="none" xmlns="http://www.w3.org/2000/svg">
<path fill-rule="evenodd" clip-rule="evenodd" d="M32.736 11.0887C30.5534 14.1089 27.3183 17.5228 24.4951 20.3798C24.4442 20.4313 24.3935 20.4823 24.3429 20.5329L19.8615 16.0515C19.915 15.9969 19.9689 15.942 20.0233 15.887C22.8401 13.0365 26.2431 9.79316 29.2625 7.61676C30.7823 6.52131 32.121 5.75861 33.1847 5.42048C34.2712 5.07505 34.71 5.26827 34.9163 5.47488C35.1055 5.66386 35.3019 6.08625 34.9479 7.17367C34.603 8.23324 33.8344 9.56883 32.736 11.0887ZM18.168 17.8936L22.5099 22.2355C21.0445 23.4923 19.7033 24.391 18.5467 24.9941C18.1904 24.3506 17.7391 23.7456 17.1931 23.1996C16.6455 22.652 16.0387 22.1998 15.3933 21.843C15.9935 20.6931 16.8985 19.3729 18.168 17.8936ZM13.0246 20.9865C10.4915 20.5006 7.77009 21.2383 5.80889 23.1996C4.93323 24.0752 4.34072 25.3705 3.92432 26.6646C3.49767 27.9907 3.20899 29.468 3.02307 30.843C2.83671 32.2212 2.74896 33.5313 2.7354 34.5367C2.72866 35.0365 2.73992 35.4825 2.77093 35.8341C2.78614 36.0066 2.80861 36.1865 2.84486 36.3509C2.86282 36.4324 2.89007 36.5377 2.93337 36.6486C2.96729 36.7355 3.05587 36.947 3.25071 37.1419C3.44538 37.3361 3.65752 37.4254 3.74438 37.4593C3.85521 37.5026 3.96045 37.5298 4.04191 37.5477C4.20633 37.584 4.38625 37.6064 4.55873 37.6217C4.91039 37.6527 5.35643 37.6639 5.85625 37.6572C6.86165 37.6437 8.1718 37.5559 9.54998 37.3696C10.9249 37.1837 12.4022 36.8951 13.7281 36.4684C15.0222 36.052 16.3174 35.4595 17.1931 34.5838C19.1558 32.6211 19.8931 29.897 19.405 27.3622C21.4198 26.3632 23.775 24.6653 26.2733 22.1371C29.0959 19.2807 32.455 15.7457 34.7623 12.5531C35.9088 10.9666 36.8589 9.37979 37.3252 7.94748C37.7823 6.54302 37.881 4.90284 36.6843 3.70738C35.4866 2.50881 33.8463 2.58684 32.4272 3.03797C30.9848 3.49653 29.3909 4.44254 27.8007 5.58868C24.6004 7.89546 21.0741 11.2669 18.2451 14.1298C15.7456 16.6592 14.0273 18.957 13.0246 20.9865ZM15.4253 24.9673C17.5926 27.1347 17.5926 30.6487 15.4253 32.8161C14.9732 33.2682 14.1348 33.7113 12.9624 34.0886C11.8219 34.4555 10.4996 34.7185 9.21501 34.8922C7.93361 35.0654 6.7241 35.1453 5.82258 35.1574C5.60377 35.1604 5.40809 35.1593 5.23762 35.155C5.23334 34.9846 5.23223 34.7891 5.23518 34.5704C5.24733 33.669 5.32725 32.4594 5.50052 31.178C5.67423 29.8933 5.93718 28.5709 6.30417 27.4303C6.68142 26.2578 7.12458 25.4194 7.57667 24.9673C9.74401 22.7999 13.258 22.7999 15.4253 24.9673Z" fill="#386059"/>
</svg>
